<svg id="visual" viewBox="0 0 1920 1080" width="1920" height="1080" xmlns="http://www.w3.org/2000/svg" xmlns:xlink="http://www.w3.org/1999/xlink" version="1.1"><path d="M0 228L29.2 238.8C58.3 249.7 116.7 271.3 174.8 282.2C233 293 291 293 349.2 262.3C407.3 231.7 465.7 170.3 523.8 139.7C582 109 640 109 698.2 123.3C756.3 137.7 814.7 166.3 872.8 189.7C931 213 989 231 1047.2 247.3C1105.3 263.7 1163.7 278.3 1221.8 274.8C1280 271.3 1338 249.7 1396.2 247.8C1454.3 246 1512.7 264 1570.8 247.8C1629 231.7 1687 181.3 1745.2 181.3C1803.3 181.3 1861.7 231.7 1890.8 256.8L1920 282L1920 0L1890.8 0C1861.7 0 1803.3 0 1745.2 0C1687 0 1629 0 1570.8 0C1512.7 0 1454.3 0 1396.2 0C1338 0 1280 0 1221.8 0C1163.7 0 1105.3 0 1047.2 0C989 0 931 0 872.8 0C814.7 0 756.3 0 698.2 0C640 0 582 0 523.8 0C465.7 0 407.3 0 349.2 0C291 0 233 0 174.8 0C116.7 0 58.3 0 29.2 0L0 0Z" fill="#6198ff"></path><path d="M0 401L29.2 447.7C58.3 494.3 116.7 587.7 174.8 600.2C233 612.7 291 544.3 349.2 517.3C407.3 490.3 465.7 504.7 523.8 472.3C582 440 640 361 698.2 359.3C756.3 357.7 814.7 433.3 872.8 474.7C931 516 989 523 1047.2 564.3C1105.3 605.7 1163.7 681.3 1221.8 654.3C1280 627.3 1338 497.7 1396.2 458C1454.3 418.3 1512.7 468.7 1570.8 486.7C1629 504.7 1687 490.3 1745.2 497.7C1803.3 505 1861.7 534 1890.8 548.5L1920 563L1920 280L1890.8 254.8C1861.7 229.7 1803.3 179.3 1745.2 179.3C1687 179.3 1629 229.7 1570.8 245.8C1512.7 262 1454.3 244 1396.2 245.8C1338 247.7 1280 269.3 1221.8 272.8C1163.7 276.3 1105.3 261.7 1047.2 245.3C989 229 931 211 872.8 187.7C814.7 164.3 756.3 135.7 698.2 121.3C640 107 582 107 523.8 137.7C465.7 168.3 407.3 229.7 349.2 260.3C291 291 233 291 174.8 280.2C116.7 269.3 58.3 247.7 29.2 236.8L0 226Z" fill="#3c80ff"></path><path d="M0 606L29.2 633C58.3 660 116.7 714 174.8 712.2C233 710.3 291 652.7 349.2 643.7C407.3 634.7 465.7 674.3 523.8 654.5C582 634.7 640 555.3 698.2 553.5C756.3 551.7 814.7 627.3 872.8 663.3C931 699.3 989 695.7 1047.2 719C1105.3 742.3 1163.7 792.7 1221.8 767.5C1280 742.3 1338 641.7 1396.2 607.5C1454.3 573.3 1512.7 605.7 1570.8 621.8C1629 638 1687 638 1745.2 641.7C1803.3 645.3 1861.7 652.7 1890.8 656.3L1920 660L1920 561L1890.8 546.5C1861.7 532 1803.3 503 1745.2 495.7C1687 488.3 1629 502.7 1570.8 484.7C1512.7 466.7 1454.3 416.3 1396.2 456C1338 495.7 1280 625.3 1221.8 652.3C1163.7 679.3 1105.3 603.7 1047.2 562.3C989 521 931 514 872.8 472.7C814.7 431.3 756.3 355.7 698.2 357.3C640 359 582 438 523.8 470.3C465.7 502.7 407.3 488.3 349.2 515.3C291 542.3 233 610.7 174.8 598.2C116.7 585.7 58.3 492.3 29.2 445.7L0 399Z" fill="#0066ff"></path><path d="M0 768L29.2 784.2C58.3 800.3 116.7 832.7 174.8 818.2C233 803.7 291 742.3 349.2 738.7C407.3 735 465.7 789 523.8 778.3C582 767.7 640 692.3 698.2 696C756.3 699.7 814.7 782.3 872.8 809.3C931 836.3 989 807.7 1047.2 814.8C1105.3 822 1163.7 865 1221.8 839.7C1280 814.3 1338 720.7 1396.2 700.8C1454.3 681 1512.7 735 1570.8 765.7C1629 796.3 1687 803.7 1745.2 796.5C1803.3 789.3 1861.7 767.7 1890.8 756.8L1920 746L1920 658L1890.8 654.3C1861.7 650.7 1803.3 643.3 1745.2 639.7C1687 636 1629 636 1570.8 619.8C1512.7 603.7 1454.3 571.3 1396.2 605.5C1338 639.7 1280 740.3 1221.8 765.5C1163.7 790.7 1105.3 740.3 1047.2 717C989 693.7 931 697.3 872.8 661.3C814.7 625.3 756.3 549.7 698.2 551.5C640 553.3 582 632.7 523.8 652.5C465.7 672.3 407.3 632.7 349.2 641.7C291 650.7 233 708.3 174.8 710.2C116.7 712 58.3 658 29.2 631L0 604Z" fill="#0059dd"></path><path d="M0 1081L29.2 1081C58.3 1081 116.7 1081 174.8 1081C233 1081 291 1081 349.2 1081C407.3 1081 465.7 1081 523.8 1081C582 1081 640 1081 698.2 1081C756.3 1081 814.7 1081 872.8 1081C931 1081 989 1081 1047.2 1081C1105.3 1081 1163.7 1081 1221.8 1081C1280 1081 1338 1081 1396.2 1081C1454.3 1081 1512.7 1081 1570.8 1081C1629 1081 1687 1081 1745.2 1081C1803.3 1081 1861.7 1081 1890.8 1081L1920 1081L1920 744L1890.8 754.8C1861.7 765.7 1803.3 787.3 1745.2 794.5C1687 801.7 1629 794.3 1570.8 763.7C1512.7 733 1454.3 679 1396.2 698.8C1338 718.7 1280 812.3 1221.8 837.7C1163.7 863 1105.3 820 1047.2 812.8C989 805.7 931 834.3 872.8 807.3C814.7 780.3 756.3 697.7 698.2 694C640 690.3 582 765.7 523.8 776.3C465.7 787 407.3 733 349.2 736.7C291 740.3 233 801.7 174.8 816.2C116.7 830.7 58.3 798.3 29.2 782.2L0 766Z" fill="#004cbb"></path></svg>